<svg version="1.2" xmlns="http://www.w3.org/2000/svg" viewBox="0 0 24 27" width="24" height="27">
	<style>
		.s0 { fill: none;stroke: #000000;stroke-linecap: round;stroke-linejoin: round;stroke-width: 1.5 } 
	</style>
	<path class="s0" d="m20 15v9.4c0 0.33-0.27 0.6-0.6 0.6h-14.8c-0.33 0-0.6-0.27-0.6-0.6v-9.4"/>
	<path id="Layer copy" class="s0" d="m12 25v-10"/>
	<path id="Layer copy 2" class="s0" d="m4 15h16"/>
	<g id="Top">
		<path class="s0" d="m21.4 6h-18.8c-0.33 0-0.6 0.27-0.6 0.6v3.8c0 0.33 0.27 0.6 0.6 0.6h18.8c0.33 0 0.6-0.27 0.6-0.6v-3.8c0-0.33-0.27-0.6-0.6-0.6z"/>
		<path class="s0" d="m12 11v-5"/>
		<path class="s0" d="m12 6h-4.5c-0.66 0-1.3-0.26-1.77-0.73-0.47-0.47-0.73-1.11-0.73-1.77 0-0.66 0.26-1.3 0.73-1.77 0.47-0.47 1.11-0.73 1.77-0.73 3.5 0 4.5 5 4.5 5z"/>
		<path class="s0" d="m12 6h4.5c0.66 0 1.3-0.26 1.77-0.73 0.47-0.47 0.73-1.11 0.73-1.77 0-0.66-0.26-1.3-0.73-1.77-0.47-0.47-1.11-0.73-1.77-0.73-3.5 0-4.5 5-4.5 5z"/>
	</g>
</svg>